<?xml version="1.0" encoding="UTF-8"?>
<!DOCTYPE svg PUBLIC "-//W3C//DTD SVG 1.1//EN" "http://www.w3.org/Graphics/SVG/1.1/DTD/svg11.dtd">
<!-- Creator: CorelDRAW X6 -->
<svg xmlns="http://www.w3.org/2000/svg" xml:space="preserve" width="8.5in" height="11in" version="1.1" style="shape-rendering:geometricPrecision; text-rendering:geometricPrecision; image-rendering:optimizeQuality; fill-rule:evenodd; clip-rule:evenodd"
viewBox="0 0 8500 11000"
 xmlns:xlink="http://www.w3.org/1999/xlink">
 <defs>
  <style type="text/css">
   <![CDATA[
    .fil0 {fill:#D7CC75}
    .fil1 {fill:#373435;fill-rule:nonzero}
   ]]>
  </style>
 </defs>
 <g id="Layer_x0020_1">
  <metadata id="CorelCorpID_0Corel-Layer"/>
  <path id="folder" class="fil0" d="M1712 3902l6370 0c126,0 204,103 173,229l-805 3322 -6828 0 805 -3322c30,-126 158,-229 284,-229zm-861 -588l641 0 0 -392c0,-94 77,-171 171,-171l1605 0c94,0 171,77 171,171l0 392 3781 0c126,0 229,103 229,229l0 359 -5738 0c-126,0 -254,103 -284,229l-805 3322 0 -3910c0,-126 103,-229 229,-229z"/>
  <path id="outline" class="fil1" d="M1712 3826l5662 0 0 -283c0,-42 -17,-80 -45,-108 -28,-28 -66,-45 -108,-45l-3781 0 -76 0 0 -76 0 -392c0,-26 -11,-50 -28,-67 -17,-17 -41,-28 -67,-28l-1605 0c-26,0 -50,11 -67,28 -17,17 -28,41 -28,67l0 392 0 76 -76 0 -641 0c-42,0 -80,17 -108,45 -28,28 -45,66 -45,108l0 3273 655 -2703c19,-80 69,-151 133,-203 64,-52 145,-84 225,-84zm5814 0l556 0c23,0 45,3 67,8 57,14 104,45 137,88 33,43 51,96 51,155 0,22 -3,46 -9,71l-805 3322 -14 58 -60 0 -6828 0 -76 0 0 -84 0 -3902c0,-84 34,-160 90,-215 55,-55 131,-90 215,-90l565 0 0 -316c0,-68 28,-130 73,-175 45,-45 107,-73 175,-73l1605 0c68,0 130,28 175,73 45,45 73,107 73,175l0 316 3705 0c84,0 160,34 215,90 55,55 90,131 90,215l0 283zm556 152l-556 0 -76 0 -5738 0c-45,0 -92,19 -130,50 -39,31 -69,74 -80,120l-782 3228 6671 0 791 -3263c3,-12 4,-24 4,-36 0,-25 -7,-46 -19,-62 -12,-16 -30,-28 -53,-33 -9,-2 -20,-3 -32,-3z"/>
 </g>
</svg>
